<svg width="94" height="23" viewBox="0 0 94 23" fill="none" xmlns="http://www.w3.org/2000/svg">
<path d="M26.0664 0.00390625H29.146V12.6862H26.1553V5.25787L23.3464 10.2936L20.5376 5.25787V12.6862H17.5469V1.36185L16.9124 0.00390625H20.6265L23.3464 5.03963L26.0623 0.00390625H26.0664Z" fill="white"/>
<path d="M37.609 12.6862L37.1038 10.0592H34.1333L33.6241 12.6862H30.5444L33.2967 1.36185L32.6622 0.00390625H37.609L40.6886 12.6862H37.609ZM34.6385 7.4322H36.5946L35.6691 2.63089H35.5599L34.6344 7.4322H34.6385Z" fill="white"/>
<path d="M50.562 0.00390625L47.7895 6.34503L50.562 12.6862H47.3894L45.7607 8.48299L44.1279 12.6862H40.9594L43.748 6.34503L40.9594 0.00390625H44.1279L45.7607 4.19091L47.3894 0.00390625H50.562Z" fill="white"/>
<path d="M60.4354 0.00390625H63.515V12.6862H60.5243V5.25787L57.7155 10.2936L54.9066 5.25787V12.6862H51.9159V1.36185L51.2814 0.00390625H54.9955L57.7155 5.03963L60.4313 0.00390625H60.4354Z" fill="white"/>
<path d="M68.68 0.00390625V12.6862H65.6893V1.36185L65.0548 0.00390625H68.676H68.68Z" fill="white"/>
<path d="M73.8411 0.00390625V12.6862H70.8503V1.36185L70.2158 0.00390625H73.837H73.8411Z" fill="white"/>
<path d="M83.7144 0.00390625V2.63089L78.9131 10.0592H83.8963L82.4494 12.6862H75.4738V10.0592L80.2751 2.63089H75.4738V0.00390625H83.7184H83.7144Z" fill="white"/>
<path d="M88.5157 7.52125V10.0553H93.5878L92.1369 12.6823H85.525V1.35795L84.8905 0H93.5878L92.1369 2.62698H88.5157V4.89023H92.6825L91.2316 7.51721H88.5117L88.5157 7.52125Z" fill="white"/>
<path d="M16.9164 21.3141V15.4297H20.7396V16.3188H17.9712V17.9071H20.5335V18.7841H17.9712V20.425H20.7558V21.3141H16.9164Z" fill="white"/>
<path d="M23.019 21.3147L21.3782 16.9014H22.4775L23.2817 19.302C23.3747 19.5849 23.4595 19.8678 23.5283 20.1507C23.597 20.4336 23.6657 20.7246 23.7384 21.0156H23.4798C23.5525 20.7246 23.6253 20.4336 23.6899 20.1507C23.7546 19.8678 23.8354 19.5849 23.9284 19.302L24.7286 16.9014H25.8198L24.1709 21.3147H23.0231H23.019Z" fill="white"/>
<path d="M28.3174 21.4036C27.8729 21.4036 27.4889 21.3106 27.1696 21.1247C26.8504 20.9388 26.6038 20.6761 26.43 20.3366C26.2563 19.9971 26.1714 19.597 26.1714 19.1363C26.1714 18.6755 26.2563 18.2835 26.426 17.94C26.5957 17.5964 26.8382 17.3297 27.1494 17.1357C27.4606 16.9417 27.8284 16.8447 28.2487 16.8447C28.5155 16.8447 28.7741 16.8892 29.0166 16.9741C29.2591 17.0589 29.4773 17.1963 29.6632 17.3782C29.8492 17.5601 29.9987 17.7904 30.1038 18.0693C30.2088 18.3482 30.2654 18.6836 30.2654 19.0716V19.3949H26.6564V18.6957H29.7562L29.2753 18.9019C29.2753 18.6553 29.2389 18.4371 29.1621 18.2471C29.0853 18.0572 28.9721 17.9117 28.8186 17.8066C28.665 17.7015 28.4791 17.649 28.2528 17.649C28.0264 17.649 27.8324 17.7015 27.6748 17.8107C27.5172 17.9198 27.396 18.0612 27.3151 18.2391C27.2343 18.4169 27.1898 18.6149 27.1898 18.8332V19.3141C27.1898 19.593 27.2383 19.8274 27.3313 20.0214C27.4243 20.2153 27.5576 20.3568 27.7314 20.4538C27.9052 20.5508 28.1032 20.5993 28.3295 20.5993C28.4791 20.5993 28.6165 20.5791 28.7377 20.5346C28.859 20.4902 28.9681 20.4255 29.057 20.3406C29.1459 20.2558 29.2146 20.1507 29.2591 20.0254L30.2048 20.2194C30.1321 20.4578 30.0108 20.664 29.8411 20.8418C29.6713 21.0196 29.4571 21.157 29.1985 21.2581C28.9398 21.3591 28.6488 21.4076 28.3215 21.4076L28.3174 21.4036Z" fill="white"/>
<path d="M31.1465 21.3146V16.9013H32.1407V17.6409H32.1892C32.27 17.3863 32.4074 17.1883 32.6055 17.0508C32.8035 16.9134 33.0298 16.8447 33.2804 16.8447C33.337 16.8447 33.4016 16.8447 33.4744 16.8528C33.5471 16.8609 33.6078 16.8649 33.6563 16.873V17.8187C33.6158 17.8066 33.5471 17.7945 33.4501 17.7824C33.3531 17.7702 33.2602 17.7662 33.1713 17.7662C32.9813 17.7662 32.8116 17.8066 32.658 17.8874C32.5044 17.9683 32.3872 18.0814 32.3024 18.2269C32.2175 18.3724 32.173 18.5341 32.173 18.724V21.3227H31.1465V21.3146Z" fill="white"/>
<path d="M34.4403 22.8907L34.6828 22.0905L34.8041 22.1229C34.9576 22.1633 35.0991 22.1754 35.2203 22.1552C35.3416 22.135 35.4426 22.0865 35.5235 21.9976C35.6043 21.9087 35.6649 21.7793 35.6972 21.6136L35.7619 21.3348L34.0968 16.9053H35.1961L36.0004 19.3059C36.0933 19.5888 36.1741 19.8717 36.2348 20.1546C36.2954 20.4375 36.3641 20.7245 36.4368 21.0195H36.1701C36.2428 20.7245 36.3115 20.4375 36.3843 20.1546C36.457 19.8717 36.5379 19.5888 36.6349 19.3059L37.4674 16.9053H38.5546L36.6591 21.8885C36.5702 22.1229 36.457 22.3249 36.3237 22.4906C36.1903 22.6563 36.0246 22.7857 35.8306 22.8705C35.6366 22.9554 35.4063 22.9999 35.1395 22.9999C34.994 22.9999 34.8606 22.9877 34.7394 22.9675C34.6182 22.9473 34.5212 22.9231 34.4525 22.8907H34.4403Z" fill="white"/>
<path d="M43.6025 16.9013V17.7056H40.8138V16.9013H43.6025ZM41.6262 21.3147V16.477C41.6262 16.182 41.6868 15.9354 41.8081 15.7414C41.9293 15.5474 42.095 15.3979 42.3052 15.3009C42.5153 15.2039 42.7457 15.1514 42.9963 15.1514C43.1781 15.1514 43.3398 15.1675 43.4772 15.1958C43.6146 15.2241 43.7197 15.2524 43.7843 15.2767L43.5742 16.0728C43.5297 16.0607 43.4732 16.0445 43.4085 16.0324C43.3438 16.0203 43.267 16.0122 43.1822 16.0122C42.9882 16.0122 42.8508 16.0607 42.7699 16.1537C42.6891 16.2466 42.6446 16.384 42.6446 16.5578V21.3147H41.6221H41.6262Z" fill="white"/>
<path d="M44.4229 21.3146V16.9013H45.4171V17.6409H45.4656C45.5464 17.3863 45.6838 17.1883 45.8818 17.0508C46.0799 16.9134 46.3062 16.8447 46.5568 16.8447C46.6133 16.8447 46.678 16.8447 46.7508 16.8528C46.8235 16.8609 46.8841 16.8649 46.9326 16.873V17.8187C46.8922 17.8066 46.8235 17.7945 46.7265 17.7824C46.6295 17.7702 46.5366 17.7662 46.4477 17.7662C46.2577 17.7662 46.088 17.8066 45.9344 17.8874C45.7808 17.9683 45.6636 18.0814 45.5787 18.2269C45.4939 18.3724 45.4494 18.5341 45.4494 18.724V21.3227H44.4229V21.3146Z" fill="white"/>
<path d="M48.7918 21.4037C48.5129 21.4037 48.2624 21.3511 48.036 21.2501C47.8097 21.1491 47.6359 20.9995 47.5066 20.8015C47.3773 20.6035 47.3126 20.361 47.3126 20.07C47.3126 19.8194 47.3611 19.6133 47.4541 19.4516C47.547 19.29 47.6723 19.1566 47.834 19.0596C47.9956 18.9626 48.1735 18.8899 48.3715 18.8373C48.5695 18.7848 48.7797 18.7525 48.9939 18.7322C49.2485 18.704 49.4587 18.6797 49.6163 18.6555C49.7739 18.6312 49.8951 18.5989 49.9679 18.5544C50.0406 18.51 50.0811 18.4332 50.0811 18.3321V18.3119C50.0811 18.1664 50.0528 18.0452 49.9962 17.9442C49.9396 17.8431 49.8507 17.7663 49.7375 17.7097C49.6244 17.6532 49.4829 17.6289 49.3132 17.6289C49.1434 17.6289 48.9939 17.6572 48.8686 17.7097C48.7433 17.7623 48.6423 17.831 48.5614 17.9159C48.4806 18.0007 48.424 18.0896 48.3877 18.1866L47.4379 17.9927C47.5228 17.734 47.6602 17.5158 47.8421 17.346C48.0239 17.1763 48.2422 17.051 48.4927 16.9661C48.7433 16.8812 49.0181 16.8408 49.3132 16.8408C49.5193 16.8408 49.7294 16.8651 49.9436 16.9136C50.1578 16.9621 50.3478 17.0429 50.5256 17.1601C50.7034 17.2773 50.8449 17.4309 50.954 17.6249C51.0631 17.8189 51.1157 18.0654 51.1157 18.3604V21.3107H50.1336V20.7045H50.0932C50.0285 20.8298 49.9356 20.9429 49.8224 21.0521C49.7092 21.1612 49.5637 21.2461 49.394 21.3107C49.2243 21.3754 49.0222 21.4077 48.7918 21.4077V21.4037ZM49.0585 20.6439C49.2727 20.6439 49.4546 20.6035 49.6082 20.5186C49.7618 20.4337 49.883 20.3246 49.9679 20.1831C50.0528 20.0417 50.0972 19.8962 50.0972 19.7305V19.2091C50.0649 19.2374 50.0043 19.2617 49.9234 19.2859C49.8426 19.3102 49.7537 19.3304 49.6567 19.3506C49.5597 19.3708 49.4587 19.3829 49.3657 19.3991C49.2727 19.4153 49.1879 19.4233 49.1232 19.4314C48.9696 19.4516 48.8322 19.488 48.7069 19.5325C48.5817 19.5769 48.4847 19.6456 48.416 19.7305C48.3472 19.8154 48.3109 19.9285 48.3109 20.0659C48.3109 20.1912 48.3432 20.2963 48.4079 20.3852C48.4725 20.4741 48.5614 20.5348 48.6706 20.5792C48.7797 20.6237 48.909 20.6479 49.0545 20.6479L49.0585 20.6439Z" fill="white"/>
<path d="M52.2028 21.3142V16.9009H53.1647L53.2051 17.9638H53.1283C53.1929 17.7011 53.2899 17.4869 53.4233 17.3212C53.5567 17.1555 53.7103 17.0342 53.8881 16.9534C54.0659 16.8726 54.2518 16.8322 54.4458 16.8322C54.7651 16.8322 55.0237 16.9332 55.2177 17.1312C55.4117 17.3293 55.5532 17.6243 55.634 18.0163H55.5128C55.5734 17.7536 55.6785 17.5354 55.824 17.3576C55.9695 17.1797 56.1432 17.0504 56.3453 16.9615C56.5474 16.8726 56.7616 16.8281 56.992 16.8281C57.2587 16.8281 57.4971 16.8847 57.7073 17.0019C57.9175 17.1191 58.0832 17.2889 58.2084 17.5111C58.3337 17.7334 58.3944 18.0082 58.3944 18.3397V21.3182H57.3678V18.4973C57.3678 18.2224 57.291 18.0244 57.1415 17.8951C56.992 17.7658 56.8101 17.7051 56.5999 17.7051C56.4383 17.7051 56.2928 17.7415 56.1715 17.8102C56.0503 17.8789 55.9573 17.98 55.8927 18.1052C55.828 18.2305 55.7957 18.376 55.7957 18.5417V21.3142H54.7934V18.4488C54.7934 18.2265 54.7247 18.0446 54.5832 17.9113C54.4418 17.7779 54.2639 17.7092 54.0457 17.7092C53.8962 17.7092 53.7588 17.7415 53.6335 17.8102C53.5082 17.8789 53.4071 17.98 53.3344 18.1133C53.2616 18.2467 53.2253 18.4124 53.2253 18.6104V21.3142H52.1987H52.2028Z" fill="white"/>
<path d="M61.4377 21.4036C60.9931 21.4036 60.6092 21.3106 60.2899 21.1247C59.9706 20.9388 59.7241 20.6761 59.5503 20.3366C59.3765 19.9971 59.2916 19.597 59.2916 19.1363C59.2916 18.6755 59.3765 18.2835 59.5462 17.94C59.716 17.5964 59.9585 17.3297 60.2697 17.1357C60.5809 16.9417 60.9486 16.8447 61.369 16.8447C61.6357 16.8447 61.8944 16.8892 62.1368 16.9741C62.3793 17.0589 62.5976 17.1963 62.7835 17.3782C62.9694 17.5601 63.1189 17.7904 63.224 18.0693C63.3291 18.3482 63.3857 18.6836 63.3857 19.0716V19.3949H59.7766V18.6957H62.8764L62.3955 18.9019C62.3955 18.6553 62.3591 18.4371 62.2823 18.2471C62.2055 18.0572 62.0924 17.9117 61.9388 17.8066C61.7852 17.7015 61.5993 17.649 61.373 17.649C61.1467 17.649 60.9527 17.7015 60.7951 17.8107C60.6374 17.9198 60.5162 18.0612 60.4354 18.2391C60.3545 18.4169 60.3101 18.6149 60.3101 18.8332V19.3141C60.3101 19.593 60.3586 19.8274 60.4515 20.0214C60.5445 20.2153 60.6779 20.3568 60.8516 20.4538C61.0254 20.5508 61.2235 20.5993 61.4498 20.5993C61.5993 20.5993 61.7367 20.5791 61.858 20.5346C61.9792 20.4902 62.0883 20.4255 62.1773 20.3406C62.2662 20.2558 62.3349 20.1507 62.3793 20.0254L63.325 20.2194C63.2523 20.4578 63.1311 20.664 62.9613 20.8418C62.7916 21.0196 62.5774 21.157 62.3187 21.2581C62.0601 21.3591 61.7691 21.4076 61.4417 21.4076L61.4377 21.4036Z" fill="white"/>
<path d="M68.2233 21.4037C67.7949 21.4037 67.4231 21.3067 67.1038 21.1167C66.7845 20.9268 66.542 20.66 66.3723 20.3206C66.2026 19.9811 66.1136 19.581 66.1136 19.1283C66.1136 18.6757 66.1985 18.2675 66.3723 17.9239C66.5461 17.5804 66.7886 17.3137 67.1038 17.1237C67.4191 16.9338 67.7909 16.8408 68.2233 16.8408C68.4698 16.8408 68.6962 16.8732 68.9063 16.9338C69.1165 16.9944 69.3064 17.0874 69.4721 17.2086C69.6378 17.3298 69.7753 17.4753 69.8884 17.6451C70.0016 17.8148 70.0784 18.0088 70.1269 18.2271L69.169 18.4291C69.1407 18.316 69.1003 18.2109 69.0437 18.1179C68.9872 18.025 68.9225 17.9442 68.8457 17.8795C68.7689 17.8148 68.676 17.7623 68.5749 17.7259C68.4739 17.6895 68.3607 17.6734 68.2354 17.6734C67.997 17.6734 67.799 17.738 67.6373 17.8633C67.4756 17.9886 67.3625 18.1624 67.2816 18.3806C67.2008 18.5989 67.1644 18.8454 67.1644 19.1202C67.1644 19.3951 67.2049 19.6375 67.2816 19.8558C67.3584 20.074 67.4797 20.2478 67.6373 20.3731C67.7949 20.4984 67.9929 20.5631 68.2354 20.5631C68.3607 20.5631 68.4779 20.5428 68.583 20.5065C68.6881 20.4701 68.781 20.4176 68.8578 20.3489C68.9346 20.2801 69.0074 20.1993 69.0599 20.0983C69.1124 19.9972 69.1569 19.8922 69.1812 19.775L70.139 19.977C70.0905 20.1993 70.0137 20.3973 69.9005 20.5711C69.7874 20.7449 69.65 20.8945 69.4802 21.0157C69.3105 21.1369 69.1246 21.2339 68.9104 21.2986C68.6962 21.3633 68.4698 21.3956 68.2193 21.3956L68.2233 21.4037Z" fill="white"/>
<path d="M72.9317 21.4037C72.5033 21.4037 72.1315 21.3067 71.8122 21.1167C71.4929 20.9268 71.2504 20.66 71.0807 20.3206C70.9069 19.9811 70.822 19.581 70.822 19.1283C70.822 18.6757 70.9069 18.2675 71.0807 17.9239C71.2545 17.5804 71.497 17.3137 71.8122 17.1237C72.1274 16.9338 72.4992 16.8408 72.9317 16.8408C73.3641 16.8408 73.7359 16.9338 74.0552 17.1237C74.3705 17.3137 74.617 17.5804 74.7867 17.9239C74.9605 18.2675 75.0454 18.6676 75.0454 19.1283C75.0454 19.589 74.9605 19.977 74.7867 20.3206C74.613 20.6641 74.3705 20.9268 74.0552 21.1167C73.74 21.3067 73.3641 21.4037 72.9317 21.4037ZM72.9317 20.5711C73.1701 20.5711 73.3722 20.5065 73.5298 20.3771C73.6874 20.2478 73.8087 20.074 73.8855 19.8558C73.9623 19.6375 74.0027 19.3951 74.0027 19.1243C74.0027 18.8535 73.9623 18.607 73.8855 18.3887C73.8087 18.1705 73.6874 17.9967 73.5298 17.8674C73.3722 17.738 73.1701 17.6734 72.9317 17.6734C72.6932 17.6734 72.4952 17.738 72.3376 17.8674C72.18 17.9967 72.0628 18.1705 71.986 18.3847C71.9092 18.5989 71.8688 18.8454 71.8688 19.1202C71.8688 19.3951 71.9092 19.6335 71.986 19.8517C72.0628 20.07 72.18 20.2438 72.3376 20.3731C72.4952 20.5024 72.6932 20.5671 72.9317 20.5671V20.5711Z" fill="white"/>
<path d="M77.4541 21.3713C77.151 21.3713 76.8843 21.3066 76.658 21.1773C76.4317 21.0479 76.2538 20.858 76.1285 20.6115C76.0032 20.3649 75.9426 20.0618 75.9426 19.7102V16.9014H76.9692V19.5526C76.9692 19.8476 77.046 20.078 77.1995 20.2477C77.3531 20.4175 77.5633 20.5023 77.834 20.5023C78.0159 20.5023 78.1776 20.4619 78.319 20.3851C78.4605 20.3084 78.5736 20.1912 78.6545 20.0376C78.7353 19.884 78.7757 19.7021 78.7757 19.492V16.9054H79.8063V21.3187H78.8323L78.8202 20.2275H78.901C78.7757 20.6115 78.5939 20.8984 78.3514 21.0884C78.1089 21.2783 77.8098 21.3713 77.4582 21.3713H77.4541Z" fill="white"/>
<path d="M81.92 18.7281V21.3146H80.8934V16.9013H81.8634L81.8796 17.9925H81.7947C81.92 17.6126 82.1018 17.3257 82.3403 17.1317C82.5787 16.9377 82.8819 16.8447 83.2415 16.8447C83.5447 16.8447 83.8074 16.9094 84.0337 17.0387C84.26 17.1681 84.4378 17.354 84.5591 17.6045C84.6803 17.8551 84.745 18.1542 84.745 18.5098V21.3187H83.7184V18.6675C83.7184 18.3724 83.6417 18.1421 83.4881 17.9723C83.3345 17.8026 83.1243 17.7177 82.8576 17.7177C82.6757 17.7177 82.5141 17.7581 82.3726 17.8349C82.2312 17.9117 82.118 18.0289 82.0372 18.1825C81.9563 18.336 81.9159 18.5179 81.9159 18.7281H81.92Z" fill="white"/>
<path d="M87.8853 16.9004V17.7047H85.3795V16.9004H87.8853ZM86.006 15.8496H87.0325V20.073C87.0325 20.2346 87.0648 20.3518 87.1335 20.4246C87.2022 20.4973 87.3154 20.5378 87.469 20.5378C87.5175 20.5378 87.5781 20.5337 87.6549 20.5216C87.7317 20.5095 87.7963 20.4973 87.8408 20.4893L88.0025 21.2814C87.8893 21.3137 87.7721 21.338 87.6549 21.3541C87.5377 21.3703 87.4245 21.3743 87.3154 21.3743C86.891 21.3743 86.5677 21.2693 86.3414 21.0591C86.1151 20.849 86.0019 20.5499 86.0019 20.1579V15.8496H86.006Z" fill="white"/>
<path d="M90.3021 21.4034C89.9626 21.4034 89.6636 21.3549 89.4009 21.2579C89.1382 21.1609 88.928 21.0195 88.7583 20.8295C88.5885 20.6396 88.4834 20.4173 88.4309 20.1505L89.3887 19.9687C89.4494 20.1869 89.5585 20.3486 89.7121 20.4577C89.8656 20.5668 90.0677 20.6194 90.3183 20.6194C90.5689 20.6194 90.7709 20.5668 90.9205 20.4658C91.07 20.3647 91.1428 20.2395 91.1428 20.0899C91.1428 19.9646 91.0943 19.8596 90.9973 19.7747C90.9003 19.6898 90.7507 19.6292 90.5487 19.5847L89.7929 19.4231C89.3766 19.3342 89.0654 19.1846 88.8593 18.9825C88.6532 18.7764 88.5522 18.5137 88.5522 18.1904C88.5522 17.9156 88.6289 17.6812 88.7785 17.4791C88.928 17.277 89.1382 17.1235 89.4049 17.0143C89.6717 16.9052 89.9828 16.8486 90.3345 16.8486C90.6699 16.8486 90.9569 16.8971 91.1993 16.9901C91.4418 17.083 91.6358 17.2164 91.7854 17.3862C91.9349 17.5559 92.0359 17.7539 92.0966 17.9843L91.1791 18.1662C91.1306 18.0126 91.0377 17.8792 90.9084 17.7741C90.779 17.6691 90.5931 17.6125 90.3506 17.6125C90.1324 17.6125 89.9505 17.661 89.805 17.758C89.6595 17.855 89.5868 17.9762 89.5868 18.1258C89.5868 18.2551 89.6353 18.3602 89.7323 18.445C89.8293 18.5299 89.9909 18.5946 90.2132 18.6431L90.9649 18.8007C91.3853 18.8896 91.6924 19.0351 91.8985 19.2331C92.1046 19.4312 92.2016 19.6858 92.2016 19.997C92.2016 20.2758 92.1208 20.5224 91.9591 20.7325C91.7975 20.9427 91.5752 21.1084 91.2883 21.2296C91.0013 21.3509 90.6739 21.4075 90.3021 21.4075V21.4034Z" fill="white"/>
<path d="M93.3656 21.2012C93.1877 21.2012 93.0382 21.1406 92.917 21.0194C92.7957 20.8981 92.7351 20.7486 92.7351 20.5748C92.7351 20.401 92.7957 20.2474 92.917 20.1262C93.0382 20.005 93.1877 19.9443 93.3656 19.9443C93.5434 19.9443 93.697 20.005 93.8182 20.1262C93.9395 20.2474 94.0001 20.397 94.0001 20.5748C94.0001 20.7526 93.9395 20.8981 93.8182 21.0194C93.697 21.1406 93.5434 21.2012 93.3656 21.2012Z" fill="white"/>
<path d="M5.21759 10.4352C2.34003 10.4352 0 8.09514 0 5.21759C0 2.34003 2.34003 0 5.21759 0C8.09514 0 10.4352 2.34003 10.4352 5.21759C10.4352 8.09514 8.09514 10.4352 5.21759 10.4352ZM5.21759 2.43703C3.68585 2.43703 2.43703 3.68181 2.43703 5.21759C2.43703 6.75336 3.68181 7.99815 5.21759 7.99815C6.75336 7.99815 7.99814 6.75336 7.99814 5.21759C7.99814 3.68181 6.75336 2.43703 5.21759 2.43703Z" fill="url(#paint0_linear_49_2027)"/>
<path d="M5.21761 9.99455C2.58255 9.99455 0.440552 7.85255 0.440552 5.21749C0.440552 2.58243 2.58255 0.44043 5.21761 0.44043C7.85268 0.44043 9.99467 2.58243 9.99467 5.21749C9.99467 7.85255 7.85268 9.99455 5.21761 9.99455ZM5.21761 2.67134C3.81521 2.67134 2.67146 3.81104 2.67146 5.21749C2.67146 6.62393 3.81117 7.76364 5.21761 7.76364C6.62406 7.76364 7.76376 6.62393 7.76376 5.21749C7.76376 3.81104 6.62406 2.67134 5.21761 2.67134Z" fill="white"/>
<path d="M5.21759 22.0983C2.34003 22.0983 0 19.7582 0 16.8807C0 14.0031 2.34003 11.6631 5.21759 11.6631C8.09514 11.6631 10.4352 14.0031 10.4352 16.8807C10.4352 19.7582 8.09514 22.0983 5.21759 22.0983ZM5.21759 14.1001C3.68585 14.1001 2.43703 15.3449 2.43703 16.8807C2.43703 18.4164 3.68181 19.6612 5.21759 19.6612C6.75336 19.6612 7.99814 18.4164 7.99814 16.8807C7.99814 15.3449 6.75336 14.1001 5.21759 14.1001Z" fill="url(#paint1_linear_49_2027)"/>
<path d="M5.21761 21.6586C2.58255 21.6586 0.440552 19.5166 0.440552 16.8816C0.440552 14.2465 2.58255 12.1045 5.21761 12.1045C7.85268 12.1045 9.99467 14.2465 9.99467 16.8816C9.99467 19.5166 7.85268 21.6586 5.21761 21.6586ZM5.21761 14.3354C3.81521 14.3354 2.67146 15.4751 2.67146 16.8816C2.67146 18.288 3.81117 19.4277 5.21761 19.4277C6.62406 19.4277 7.76376 18.288 7.76376 16.8816C7.76376 15.4751 6.62406 14.3354 5.21761 14.3354Z" fill="white"/>
<defs>
<linearGradient id="paint0_linear_49_2027" x1="1.79847" y1="2.7361" x2="10.2412" y2="8.86707" gradientUnits="userSpaceOnUse">
<stop stop-color="#0ECCFB"/>
<stop offset="0.12" stop-color="#45D7FB"/>
<stop offset="0.23" stop-color="#75E1FC"/>
<stop offset="0.36" stop-color="#A0EAFD"/>
<stop offset="0.48" stop-color="#C2F2FD"/>
<stop offset="0.6" stop-color="#DDF7FE"/>
<stop offset="0.73" stop-color="#EFFBFE"/>
<stop offset="0.86" stop-color="#FBFEFE"/>
<stop offset="1" stop-color="white"/>
</linearGradient>
<linearGradient id="paint1_linear_49_2027" x1="1.79847" y1="14.3992" x2="10.2412" y2="20.5302" gradientUnits="userSpaceOnUse">
<stop stop-color="#0ECCFB"/>
<stop offset="0.26" stop-color="#62DDFC"/>
<stop offset="0.49" stop-color="#A5ECFD"/>
<stop offset="0.69" stop-color="#D6F6FE"/>
<stop offset="0.83" stop-color="#F3FCFE"/>
<stop offset="0.91" stop-color="white"/>
</linearGradient>
</defs>
</svg>
