<svg width="255" height="64" viewBox="0 0 255 64" fill="none" xmlns="http://www.w3.org/2000/svg">
<path d="M14.51 29.03C6.51 29.03 0 22.52 0 14.52C0 6.52 6.51 0.0100002 14.51 0.0100002C22.51 0.0100002 29.02 6.52 29.02 14.52C29.02 22.52 22.51 29.03 14.51 29.03ZM14.51 6.79C10.25 6.79 6.78 10.26 6.78 14.52C6.78 18.78 10.25 22.25 14.51 22.25C18.77 22.25 22.24 18.78 22.24 14.52C22.24 10.26 18.77 6.79 14.51 6.79Z" fill="url(#paint0_linear_49_1753)"/>
<path d="M14.51 27.8C7.18 27.8 1.22 21.84 1.22 14.51C1.22 7.18 7.18 1.22 14.51 1.22C21.84 1.22 27.8 7.18 27.8 14.51C27.8 21.84 21.84 27.8 14.51 27.8ZM14.51 7.44C10.61 7.44 7.43 10.61 7.43 14.52C7.43 18.43 10.6 21.6 14.51 21.6C18.42 21.6 21.59 18.43 21.59 14.52C21.59 10.61 18.42 7.44 14.51 7.44Z" fill="#006DE6"/>
<path d="M14.51 61.46C6.51 61.46 0 54.95 0 46.95C0 38.95 6.51 32.44 14.51 32.44C22.51 32.44 29.02 38.95 29.02 46.95C29.02 54.95 22.51 61.46 14.51 61.46ZM14.51 39.22C10.25 39.22 6.78 42.69 6.78 46.95C6.78 51.21 10.25 54.68 14.51 54.68C18.77 54.68 22.24 51.21 22.24 46.95C22.24 42.69 18.77 39.22 14.51 39.22Z" fill="url(#paint1_linear_49_1753)"/>
<path d="M14.51 60.24C7.18 60.24 1.22 54.28 1.22 46.95C1.22 39.62 7.18 33.66 14.51 33.66C21.84 33.66 27.8 39.62 27.8 46.95C27.8 54.28 21.84 60.24 14.51 60.24ZM14.51 39.87C10.61 39.87 7.43 43.04 7.43 46.95C7.43 50.86 10.6 54.03 14.51 54.03C18.42 54.03 21.59 50.86 21.59 46.95C21.59 43.04 18.42 39.87 14.51 39.87Z" fill="#006DE6"/>
<path d="M65.22 0.0100002H73.78V35.27H65.47V14.62L57.66 28.63L49.85 14.62V35.27H41.54V3.78L39.78 0H50.11L57.67 14.01L65.22 0V0.0100002Z" fill="#006DE6"/>
<path d="M97.31 35.27L95.9 27.96H87.64L86.23 35.27H77.67L85.33 3.78L83.57 0H97.32L105.88 35.26H97.32L97.31 35.27ZM89.05 20.66H94.49L91.92 7.31H91.62L89.05 20.66Z" fill="#006DE6"/>
<path d="M133.33 0.0100002L125.62 17.64L133.33 35.27H124.51L119.98 23.58L115.44 35.27H106.63L114.39 17.64L106.63 0.0100002H115.44L119.98 11.65L124.51 0.0100002H133.33Z" fill="#006DE6"/>
<path d="M160.79 0.0100002H169.35V35.27H161.04V14.62L153.23 28.63L145.42 14.62V35.27H137.11V3.78L135.35 0H145.68L153.24 14.01L160.79 0V0.0100002Z" fill="#006DE6"/>
<path d="M183.71 0.0100002V35.27H175.4V3.78L173.64 0H183.71V0.0100002Z" fill="#006DE6"/>
<path d="M198.07 0.0100002V35.27H189.76V3.78L188 0H198.07V0.0100002Z" fill="#006DE6"/>
<path d="M225.52 0.0100002V7.31L212.17 27.96H226.02L221.99 35.27H202.59V27.96L215.94 7.31H202.59V0.0100002H225.51H225.52Z" fill="#006DE6"/>
<path d="M238.87 20.91V27.96H252.98L248.95 35.27H230.56V3.78L228.8 0H252.98L248.95 7.3H238.88V13.6H250.47L246.44 20.91H238.88H238.87Z" fill="#006DE6"/>
<path d="M39.78 59.27V42.91H50.41V45.38H42.71V49.79H49.84V52.23H42.71V56.8H50.45V59.27H39.78Z" fill="#00ADEE"/>
<path d="M56.75 59.27L52.18 46.99H55.23L57.47 53.67C57.73 54.45 57.96 55.24 58.15 56.03C58.34 56.82 58.53 57.62 58.73 58.43H58.02C58.22 57.62 58.42 56.82 58.61 56.03C58.8 55.24 59.02 54.45 59.27 53.67L61.5 46.99H64.53L59.94 59.27H56.74H56.75Z" fill="#00ADEE"/>
<path d="M71.47 59.52C70.23 59.52 69.17 59.26 68.28 58.74C67.39 58.22 66.71 57.49 66.23 56.54C65.75 55.59 65.51 54.48 65.51 53.2C65.51 51.92 65.75 50.82 66.22 49.87C66.69 48.92 67.36 48.17 68.23 47.64C69.1 47.11 70.12 46.83 71.29 46.83C72.04 46.83 72.75 46.95 73.43 47.19C74.11 47.43 74.71 47.8 75.23 48.31C75.75 48.82 76.16 49.46 76.46 50.24C76.76 51.02 76.9 51.95 76.9 53.02V53.92H66.86V51.98H75.48L74.14 52.55C74.14 51.86 74.03 51.26 73.82 50.73C73.61 50.2 73.29 49.8 72.87 49.51C72.45 49.22 71.92 49.07 71.29 49.07C70.66 49.07 70.13 49.22 69.69 49.51C69.25 49.8 68.92 50.2 68.69 50.7C68.46 51.2 68.34 51.75 68.34 52.35V53.69C68.34 54.47 68.47 55.12 68.74 55.66C69.01 56.2 69.37 56.6 69.85 56.87C70.33 57.14 70.88 57.28 71.51 57.28C71.93 57.28 72.31 57.22 72.65 57.1C72.99 56.98 73.29 56.8 73.53 56.56C73.77 56.32 73.97 56.03 74.09 55.69L76.71 56.23C76.51 56.89 76.18 57.47 75.7 57.96C75.22 58.45 74.63 58.84 73.92 59.11C73.21 59.38 72.39 59.52 71.48 59.52H71.47Z" fill="#00ADEE"/>
<path d="M79.35 59.27V46.99H82.12V49.04H82.25C82.47 48.33 82.85 47.78 83.4 47.4C83.95 47.02 84.58 46.82 85.28 46.82C85.44 46.82 85.62 46.82 85.82 46.84C86.02 46.86 86.19 46.87 86.33 46.89V49.51C86.21 49.47 86.02 49.44 85.76 49.41C85.5 49.38 85.24 49.37 84.98 49.37C84.45 49.37 83.98 49.48 83.56 49.71C83.14 49.94 82.81 50.25 82.57 50.65C82.33 51.05 82.21 51.51 82.21 52.03V59.26H79.35V59.27Z" fill="#00ADEE"/>
<path d="M88.5 63.65L89.17 61.42L89.51 61.51C89.94 61.62 90.33 61.65 90.66 61.6C90.99 61.55 91.28 61.41 91.51 61.16C91.74 60.91 91.9 60.56 91.99 60.09L92.17 59.31L87.54 46.99H90.59L92.83 53.67C93.09 54.46 93.31 55.25 93.48 56.03C93.65 56.81 93.84 57.62 94.04 58.43H93.29C93.49 57.61 93.69 56.81 93.88 56.02C94.07 55.23 94.31 54.45 94.57 53.66L96.89 46.98H99.91L94.64 60.84C94.39 61.49 94.08 62.05 93.71 62.51C93.34 62.97 92.88 63.33 92.34 63.57C91.8 63.81 91.16 63.93 90.42 63.93C90.02 63.93 89.65 63.9 89.31 63.84C88.97 63.78 88.7 63.71 88.51 63.63L88.5 63.65Z" fill="#00ADEE"/>
<path d="M113.98 46.99V49.23H106.23V46.99H113.98ZM108.48 59.27V45.82C108.48 45 108.65 44.32 108.99 43.78C109.33 43.24 109.79 42.83 110.37 42.56C110.95 42.29 111.59 42.15 112.29 42.15C112.8 42.15 113.24 42.19 113.63 42.27C114.02 42.35 114.3 42.42 114.49 42.49L113.91 44.71C113.79 44.67 113.63 44.63 113.45 44.59C113.27 44.55 113.06 44.53 112.82 44.53C112.29 44.53 111.9 44.66 111.67 44.93C111.44 45.2 111.32 45.57 111.32 46.05V59.28H108.48V59.27Z" fill="#00ADEE"/>
<path d="M116.27 59.27V46.99H119.04V49.04H119.17C119.39 48.33 119.77 47.78 120.32 47.4C120.87 47.02 121.5 46.82 122.2 46.82C122.36 46.82 122.54 46.82 122.74 46.84C122.94 46.86 123.11 46.87 123.25 46.89V49.51C123.13 49.47 122.94 49.44 122.68 49.41C122.42 49.38 122.16 49.37 121.9 49.37C121.37 49.37 120.9 49.48 120.48 49.71C120.06 49.94 119.73 50.25 119.49 50.65C119.25 51.05 119.13 51.51 119.13 52.03V59.26H116.27V59.27Z" fill="#00ADEE"/>
<path d="M128.41 59.52C127.63 59.52 126.93 59.38 126.31 59.1C125.69 58.82 125.2 58.4 124.84 57.85C124.48 57.3 124.3 56.62 124.3 55.82C124.3 55.12 124.43 54.55 124.69 54.1C124.95 53.65 125.3 53.28 125.74 53.01C126.18 52.74 126.68 52.53 127.24 52.4C127.8 52.27 128.37 52.16 128.98 52.1C129.69 52.02 130.27 51.95 130.72 51.89C131.17 51.83 131.49 51.74 131.7 51.6C131.91 51.46 132.01 51.26 132.01 50.99V50.94C132.01 50.54 131.93 50.2 131.77 49.91C131.61 49.62 131.37 49.41 131.05 49.26C130.73 49.11 130.34 49.03 129.87 49.03C129.4 49.03 128.98 49.1 128.63 49.25C128.28 49.4 128 49.59 127.78 49.82C127.56 50.05 127.4 50.31 127.3 50.58L124.65 50.04C124.89 49.32 125.26 48.72 125.77 48.24C126.28 47.76 126.88 47.41 127.58 47.18C128.28 46.95 129.04 46.83 129.86 46.83C130.44 46.83 131.02 46.9 131.61 47.03C132.2 47.16 132.74 47.39 133.23 47.72C133.72 48.05 134.12 48.47 134.42 49.02C134.72 49.57 134.87 50.24 134.87 51.06V59.26H132.14V57.57H132.03C131.85 57.91 131.6 58.23 131.28 58.53C130.96 58.83 130.57 59.06 130.09 59.24C129.61 59.42 129.06 59.51 128.42 59.51L128.41 59.52ZM129.15 57.4C129.74 57.4 130.25 57.28 130.68 57.05C131.11 56.82 131.44 56.51 131.68 56.12C131.92 55.73 132.04 55.32 132.04 54.86V53.41C131.94 53.48 131.79 53.55 131.56 53.62C131.33 53.69 131.09 53.74 130.81 53.8C130.53 53.86 130.26 53.9 130 53.93C129.74 53.96 129.51 54 129.32 54.02C128.9 54.08 128.51 54.17 128.17 54.31C127.83 54.45 127.56 54.63 127.36 54.86C127.16 55.09 127.07 55.41 127.07 55.79C127.07 56.14 127.16 56.44 127.34 56.67C127.52 56.9 127.76 57.09 128.08 57.21C128.4 57.33 128.75 57.4 129.15 57.4Z" fill="#00ADEE"/>
<path d="M137.9 59.27V46.99H140.58L140.69 49.94H140.48C140.66 49.21 140.93 48.61 141.3 48.15C141.67 47.69 142.1 47.35 142.6 47.12C143.1 46.89 143.61 46.79 144.15 46.79C145.04 46.79 145.75 47.07 146.3 47.62C146.85 48.17 147.23 49 147.46 50.08H147.12C147.29 49.35 147.58 48.74 147.98 48.25C148.38 47.76 148.87 47.4 149.43 47.15C149.99 46.9 150.59 46.78 151.23 46.78C151.97 46.78 152.63 46.94 153.22 47.26C153.81 47.58 154.27 48.05 154.61 48.67C154.95 49.29 155.13 50.06 155.13 50.97V59.25H152.27V51.41C152.27 50.65 152.06 50.09 151.64 49.74C151.22 49.39 150.72 49.21 150.14 49.21C149.69 49.21 149.29 49.31 148.95 49.51C148.61 49.71 148.36 49.98 148.18 50.33C148 50.68 147.91 51.08 147.91 51.54V59.25H145.12V51.28C145.12 50.66 144.93 50.16 144.54 49.78C144.15 49.4 143.65 49.21 143.05 49.21C142.63 49.21 142.25 49.31 141.9 49.5C141.55 49.69 141.28 49.97 141.07 50.35C140.86 50.73 140.76 51.18 140.76 51.73V59.25H137.9V59.27Z" fill="#00ADEE"/>
<path d="M163.57 59.52C162.33 59.52 161.27 59.26 160.38 58.74C159.49 58.22 158.81 57.49 158.33 56.54C157.85 55.59 157.61 54.48 157.61 53.2C157.61 51.92 157.85 50.82 158.32 49.87C158.79 48.92 159.46 48.17 160.33 47.64C161.2 47.11 162.22 46.83 163.39 46.83C164.14 46.83 164.85 46.95 165.53 47.19C166.21 47.43 166.81 47.8 167.33 48.31C167.85 48.82 168.26 49.46 168.56 50.24C168.86 51.02 169 51.95 169 53.02V53.92H158.96V51.98H167.58L166.24 52.55C166.24 51.86 166.13 51.26 165.92 50.73C165.71 50.2 165.39 49.8 164.97 49.51C164.55 49.22 164.02 49.07 163.39 49.07C162.76 49.07 162.23 49.22 161.79 49.51C161.35 49.8 161.02 50.2 160.79 50.7C160.56 51.2 160.44 51.75 160.44 52.35V53.69C160.44 54.47 160.57 55.12 160.84 55.66C161.11 56.2 161.47 56.6 161.95 56.87C162.43 57.14 162.98 57.28 163.61 57.28C164.03 57.28 164.41 57.22 164.75 57.1C165.09 56.98 165.39 56.8 165.63 56.56C165.87 56.32 166.07 56.03 166.19 55.69L168.81 56.23C168.61 56.89 168.28 57.47 167.8 57.96C167.32 58.45 166.73 58.84 166.02 59.11C165.31 59.38 164.49 59.52 163.58 59.52H163.57Z" fill="#00ADEE"/>
<path d="M182.44 59.52C181.25 59.52 180.21 59.25 179.33 58.72C178.45 58.19 177.77 57.45 177.29 56.5C176.81 55.55 176.57 54.45 176.57 53.19C176.57 51.93 176.81 50.8 177.29 49.85C177.77 48.9 178.45 48.15 179.33 47.63C180.21 47.1 181.24 46.84 182.44 46.84C183.12 46.84 183.75 46.93 184.34 47.1C184.93 47.27 185.45 47.53 185.91 47.86C186.37 48.19 186.76 48.6 187.07 49.07C187.38 49.54 187.6 50.08 187.73 50.68L185.06 51.24C184.98 50.93 184.86 50.64 184.71 50.38C184.56 50.12 184.38 49.9 184.16 49.72C183.94 49.54 183.69 49.4 183.4 49.3C183.11 49.2 182.8 49.15 182.46 49.15C181.79 49.15 181.24 49.33 180.8 49.68C180.36 50.03 180.03 50.51 179.81 51.12C179.59 51.73 179.48 52.41 179.48 53.18C179.48 53.95 179.59 54.61 179.81 55.22C180.03 55.83 180.36 56.31 180.8 56.66C181.24 57.01 181.79 57.19 182.46 57.19C182.81 57.19 183.13 57.14 183.42 57.04C183.71 56.94 183.97 56.79 184.19 56.6C184.41 56.41 184.6 56.18 184.76 55.91C184.92 55.64 185.03 55.34 185.1 55.01L187.77 55.57C187.64 56.18 187.42 56.73 187.11 57.22C186.8 57.71 186.41 58.11 185.95 58.46C185.49 58.81 184.96 59.06 184.37 59.25C183.78 59.44 183.14 59.52 182.45 59.52H182.44Z" fill="#00ADEE"/>
<path d="M195.54 59.52C194.35 59.52 193.31 59.25 192.43 58.72C191.55 58.19 190.87 57.45 190.39 56.5C189.91 55.55 189.67 54.45 189.67 53.19C189.67 51.93 189.91 50.8 190.39 49.85C190.87 48.9 191.55 48.15 192.43 47.63C193.31 47.11 194.34 46.84 195.54 46.84C196.74 46.84 197.78 47.1 198.66 47.63C199.54 48.16 200.22 48.9 200.7 49.85C201.18 50.81 201.42 51.92 201.42 53.19C201.42 54.46 201.18 55.55 200.7 56.5C200.22 57.45 199.54 58.19 198.66 58.72C197.78 59.25 196.74 59.52 195.54 59.52ZM195.54 57.2C196.21 57.2 196.76 57.02 197.2 56.66C197.64 56.3 197.97 55.82 198.19 55.21C198.41 54.6 198.51 53.93 198.51 53.18C198.51 52.43 198.4 51.75 198.19 51.14C197.98 50.53 197.64 50.05 197.2 49.69C196.76 49.33 196.2 49.15 195.54 49.15C194.88 49.15 194.32 49.33 193.89 49.69C193.46 50.05 193.13 50.53 192.91 51.13C192.69 51.73 192.59 52.42 192.59 53.18C192.59 53.94 192.7 54.6 192.91 55.21C193.12 55.82 193.45 56.3 193.89 56.66C194.33 57.02 194.88 57.2 195.54 57.2Z" fill="#00ADEE"/>
<path d="M208.12 59.42C207.28 59.42 206.54 59.24 205.91 58.88C205.28 58.52 204.79 58 204.44 57.3C204.09 56.6 203.92 55.77 203.92 54.79V46.98H206.78V54.35C206.78 55.17 206.99 55.81 207.42 56.28C207.85 56.75 208.44 56.98 209.18 56.98C209.69 56.98 210.14 56.87 210.53 56.65C210.92 56.43 211.23 56.11 211.46 55.68C211.69 55.25 211.79 54.75 211.79 54.16V46.97H214.66V59.25H211.95L211.92 56.22H212.14C211.8 57.29 211.29 58.09 210.61 58.61C209.93 59.13 209.11 59.4 208.13 59.4L208.12 59.42Z" fill="#00ADEE"/>
<path d="M220.54 52.07V59.26H217.68V46.98H220.38L220.42 50.01H220.19C220.53 48.95 221.04 48.15 221.71 47.62C222.38 47.09 223.21 46.82 224.21 46.82C225.05 46.82 225.79 47 226.42 47.36C227.05 47.72 227.54 48.24 227.89 48.93C228.24 49.62 228.41 50.46 228.41 51.44V59.25H225.55V51.88C225.55 51.06 225.34 50.42 224.91 49.95C224.48 49.48 223.9 49.25 223.15 49.25C222.64 49.25 222.19 49.36 221.8 49.58C221.41 49.8 221.09 50.12 220.87 50.54C220.65 50.96 220.53 51.47 220.53 52.06L220.54 52.07Z" fill="#00ADEE"/>
<path d="M237.12 46.99V49.23H230.15V46.99H237.12ZM231.89 44.07H234.75V55.81C234.75 56.26 234.85 56.58 235.04 56.79C235.23 57 235.54 57.1 235.97 57.1C236.1 57.1 236.28 57.08 236.49 57.05C236.7 57.02 236.88 56.99 237.01 56.96L237.46 59.17C237.15 59.27 236.82 59.33 236.49 59.37C236.16 59.41 235.85 59.43 235.55 59.43C234.37 59.43 233.47 59.14 232.84 58.55C232.21 57.96 231.9 57.13 231.9 56.05V44.07H231.89Z" fill="#00ADEE"/>
<path d="M243.84 59.52C242.9 59.52 242.06 59.38 241.34 59.11C240.62 58.84 240.02 58.44 239.56 57.92C239.1 57.4 238.79 56.77 238.65 56.03L241.32 55.52C241.49 56.13 241.79 56.58 242.21 56.88C242.63 57.18 243.2 57.32 243.9 57.32C244.6 57.32 245.16 57.18 245.57 56.9C245.98 56.62 246.19 56.27 246.19 55.85C246.19 55.5 246.05 55.21 245.78 54.98C245.51 54.75 245.09 54.57 244.53 54.45L242.43 54C241.27 53.75 240.41 53.34 239.84 52.77C239.27 52.2 238.98 51.46 238.98 50.56C238.98 49.8 239.19 49.14 239.61 48.58C240.03 48.02 240.61 47.59 241.35 47.28C242.09 46.97 242.96 46.82 243.94 46.82C244.87 46.82 245.67 46.95 246.34 47.22C247.01 47.49 247.55 47.85 247.97 48.32C248.39 48.79 248.67 49.35 248.83 49.98L246.28 50.49C246.14 50.06 245.89 49.69 245.52 49.4C245.15 49.11 244.64 48.96 243.97 48.96C243.36 48.96 242.86 49.09 242.45 49.36C242.04 49.63 241.84 49.97 241.84 50.39C241.84 50.75 241.98 51.05 242.25 51.28C242.52 51.51 242.97 51.7 243.59 51.83L245.68 52.27C246.84 52.52 247.71 52.92 248.27 53.47C248.83 54.02 249.12 54.73 249.12 55.59C249.12 56.37 248.9 57.05 248.45 57.64C248 58.23 247.38 58.69 246.59 59.02C245.8 59.35 244.88 59.52 243.85 59.52H243.84Z" fill="#00ADEE"/>
<path d="M252.36 58.95C251.87 58.95 251.45 58.78 251.11 58.44C250.77 58.1 250.6 57.69 250.6 57.2C250.6 56.71 250.77 56.28 251.11 55.95C251.45 55.62 251.87 55.44 252.36 55.44C252.85 55.44 253.28 55.61 253.62 55.95C253.96 56.29 254.13 56.7 254.13 57.2C254.13 57.7 253.96 58.1 253.62 58.44C253.28 58.78 252.86 58.95 252.36 58.95Z" fill="#00ADEE"/>
<defs>
<linearGradient id="paint0_linear_49_1753" x1="5.01" y1="7.62" x2="28.48" y2="24.66" gradientUnits="userSpaceOnUse">
<stop stop-color="#0DCBFA"/>
<stop offset="0.19" stop-color="#08A9F3"/>
<stop offset="0.39" stop-color="#048EED"/>
<stop offset="0.58" stop-color="#027CE9"/>
<stop offset="0.78" stop-color="#0070E6"/>
<stop offset="1" stop-color="#006DE6"/>
</linearGradient>
<linearGradient id="paint1_linear_49_1753" x1="5.01" y1="40.05" x2="28.48" y2="57.09" gradientUnits="userSpaceOnUse">
<stop stop-color="#0ECCFB"/>
<stop offset="0.05" stop-color="#0DC5F9"/>
<stop offset="0.44" stop-color="#0695EF"/>
<stop offset="0.74" stop-color="#0178E8"/>
<stop offset="0.91" stop-color="#006DE6"/>
</linearGradient>
</defs>
</svg>
