<svg width="57" height="57" viewBox="0 0 57 57" fill="none" xmlns="http://www.w3.org/2000/svg">
<g clip-path="url(#clip0_12_15339)">
<path d="M43.3085 0H13.6915C6.12988 0 0 6.12988 0 13.6915V43.3085C0 50.8701 6.12988 57 13.6915 57H43.3085C50.8701 57 57 50.8701 57 43.3085V13.6915C57 6.12988 50.8701 0 43.3085 0Z" fill="#006DE6"/>
<g opacity="0.54">
<path d="M22.9933 41.4952C16.4344 41.4952 11.0966 36.1574 11.0966 29.5984C11.0966 23.0395 16.4344 17.7017 22.9933 17.7017C29.5523 17.7017 34.8901 23.0395 34.8901 29.5984C34.8901 36.1574 29.5523 41.4952 22.9933 41.4952ZM22.9933 18.9413C17.1143 18.9413 12.3362 23.7241 12.3362 29.5984C12.3362 35.4728 17.119 40.2556 22.9933 40.2556C28.8677 40.2556 33.6505 35.4728 33.6505 29.5984C33.6505 23.7241 28.8677 18.9413 22.9933 18.9413Z" fill="url(#paint0_linear_12_15339)"/>
</g>
<path d="M22.9933 29.5987C22.9933 23.2849 28.1323 18.146 34.4461 18.146C40.7599 18.146 45.8988 23.2849 45.8988 29.5987C45.8988 35.9125 40.7599 41.0515 34.4461 41.0515C28.1323 41.0515 22.9933 35.9125 22.9933 29.5987ZM40.5471 29.5987C40.5471 26.236 37.8088 23.4977 34.4461 23.4977C31.0833 23.4977 28.345 26.236 28.345 29.5987C28.345 32.9615 31.0833 35.6998 34.4461 35.6998C37.8088 35.6998 40.5471 32.9615 40.5471 29.5987Z" fill="white"/>
<g opacity="0.54">
<path d="M11.5406 29.5616C11.5406 23.2478 16.6795 18.1089 22.9933 18.1089C29.3072 18.1089 34.4461 23.2478 34.4461 29.5616C34.4461 35.8754 29.3072 41.0143 22.9933 41.0143C16.6795 41.0143 11.5406 35.8754 11.5406 29.5616Z" fill="white"/>
</g>
</g>
<defs>
<linearGradient id="paint0_linear_12_15339" x1="15.1022" y1="23.9785" x2="34.4738" y2="37.7763" gradientUnits="userSpaceOnUse">
<stop stop-color="white"/>
<stop offset="0.04" stop-color="white" stop-opacity="0.94"/>
<stop offset="0.29" stop-color="white" stop-opacity="0.61"/>
<stop offset="0.51" stop-color="white" stop-opacity="0.35"/>
<stop offset="0.7" stop-color="white" stop-opacity="0.16"/>
<stop offset="0.83" stop-color="white" stop-opacity="0.04"/>
<stop offset="0.91" stop-color="white" stop-opacity="0"/>
</linearGradient>
<clipPath id="clip0_12_15339">
<rect width="57" height="57" fill="white"/>
</clipPath>
</defs>
</svg>
